<svg width="192" height="192" viewBox="0 0 192 192" fill="none" xmlns="http://www.w3.org/2000/svg">
<path d="M0 96V192H192V0H0V96ZM100.801 62.6992C102.711 63.0937 106.273 64.332 107.25 64.9688C107.719 65.25 108.43 65.7187 108.844 65.9805C109.855 66.6367 113.457 70.125 114.543 71.5312C116.363 73.8359 117.73 76.6133 118.5 79.5195C118.82 80.7734 118.93 81.8047 119.008 84.5625C119.117 88.707 118.82 90.9375 117.938 92.6992C117.617 93.3008 117.375 93.957 117.375 94.1641C117.375 95.25 114.637 99.4297 112.555 101.512C110.176 103.93 105.977 106.426 102.938 107.23C99.2812 108.227 96.4883 108.395 92.5312 107.906C89.3242 107.492 88.4258 107.23 85.4609 105.711L82.8008 104.383L76.9492 98.5312L75.6016 95.8867C73.5391 91.8008 72.9375 89.1172 72.9375 83.9258C72.9375 82.0313 73.0117 81.3203 73.3867 80.043C74.1758 77.3242 75.3203 74.793 76.6133 72.918C78.1484 70.6328 80.6992 67.7266 81.5625 67.2578C81.918 67.0703 82.6133 66.582 83.1016 66.168C83.5859 65.7578 84.3359 65.2695 84.7891 65.043C85.2383 64.8359 85.9141 64.5 86.2891 64.293C87.2617 63.7695 91.1641 62.6445 92.7188 62.4375C94.4609 62.2109 99.1328 62.3633 100.801 62.6992ZM106.332 119.625C106.387 121.332 106.461 123.918 106.48 125.363L106.5 128.023L107.137 128.137C108.395 128.383 108.695 129.414 107.699 130.051C107.383 130.273 106.949 130.332 106.238 130.273C104.98 130.164 103.988 129.488 103.801 128.605C103.742 128.289 103.688 125.383 103.688 122.176V116.344L104.945 116.438L106.219 116.531L106.332 119.625ZM76.875 118.352C76.875 120.898 77.3242 121.801 78.168 120.957C78.7305 120.395 79.2188 120.188 80.0078 120.188C80.9609 120.188 82.5547 121.125 83.1758 122.043C84.6758 124.312 84.4492 127.949 82.7422 129.355C81.4141 130.445 79.1797 130.594 77.793 129.656L77.0234 129.148L76.5742 129.582C76.125 130.012 75 130.18 74.6797 129.863C74.6055 129.789 74.5117 126.73 74.4766 123.074L74.418 116.438H76.875V118.352ZM100.125 122.043V127.648L100.707 127.875C101.98 128.418 102.395 129.488 101.531 130.051C100.875 130.48 98.9805 130.352 98.418 129.824C97.5 129.02 97.4258 128.512 97.3516 122.758C97.3125 119.793 97.332 117.148 97.3867 116.906C97.5 116.457 97.5742 116.438 98.8125 116.438H100.125V122.043ZM126.039 117.562C126.711 118.086 126.824 119.418 126.656 125.195L126.508 129.938H125.324C124.668 129.938 124.105 129.883 124.105 129.789C124.086 129.711 124.031 128.68 123.957 127.5L123.844 125.344L121.387 125.289C119.211 125.25 118.914 125.27 118.801 125.551C118.727 125.738 118.594 126.77 118.48 127.855C118.367 128.945 118.258 129.863 118.238 129.883C118.219 129.898 117.656 129.977 116.961 130.051L115.727 130.18L115.594 128.551C115.461 126.938 115.613 119.25 115.801 118.258C115.895 117.77 115.949 117.75 117.074 117.75H118.258L118.387 119.477C118.445 120.414 118.5 121.555 118.5 122.008V122.812L120.898 122.699C122.211 122.645 123.375 122.57 123.488 122.531C123.617 122.492 123.73 121.727 123.805 120.617C123.918 118.668 124.125 117.844 124.648 117.449C125.102 117.094 125.492 117.133 126.039 117.562ZM41.6992 118.18C42 119.363 41.7578 119.477 38.2109 119.68C36.3555 119.793 35.1016 119.945 35.0234 120.074C34.9492 120.187 34.875 120.676 34.875 121.145C34.875 122.398 35.1562 122.57 37.5 122.793C39.1133 122.945 39.5234 123.055 39.7695 123.355C40.1055 123.77 40.0508 124.555 39.6758 124.875C39.543 124.969 38.4922 125.137 37.3125 125.25C36.1484 125.344 35.1563 125.477 35.1016 125.531C35.043 125.586 34.9492 126.637 34.9141 127.875L34.8359 130.125H31.8203L31.9297 124.164C31.9883 120.898 32.1016 118.031 32.1758 117.789L32.2891 117.375L36.918 117.414L41.5312 117.469L41.6992 118.18ZM68.7734 118.164C68.8672 118.293 69.0195 118.668 69.0742 119.008C69.2422 119.758 69.4141 119.887 70.6875 120.242C73.3125 121.012 73.1992 122.102 70.4258 122.605C69.8047 122.719 69.2812 122.852 69.2422 122.887C69.0391 123.094 68.9805 126.508 69.168 126.992C69.3945 127.555 70.332 128.062 71.1367 128.062C72.0937 128.062 72.4688 128.98 71.832 129.77C71.5703 130.105 71.25 130.199 70.332 130.273C69.0742 130.367 67.6484 130.051 67.2734 129.602C67.125 129.43 66.9766 128.137 66.8438 126.133L66.6562 122.926L65.9062 122.551C65.2305 122.195 65.1563 122.082 65.1016 121.352C65.043 120.637 65.082 120.543 65.5703 120.375C66.4883 120.039 66.6562 119.887 66.8438 119.082C66.957 118.648 67.1641 118.219 67.3125 118.125C67.707 117.863 68.5508 117.898 68.7734 118.164ZM157.125 118.875C157.18 119.344 157.293 119.813 157.367 119.926C157.445 120.055 157.988 120.207 158.57 120.281C159.844 120.43 160.125 120.617 160.125 121.312C160.125 122.023 159.543 122.477 158.457 122.586C157.332 122.68 157.312 122.699 157.312 125.645V127.82L158.25 127.93C159.449 128.082 159.898 128.324 160.051 128.945C160.145 129.32 160.086 129.523 159.75 129.789C159.414 130.07 159 130.125 157.5 130.125C154.648 130.125 154.461 129.863 154.164 125.418C154.07 124.012 153.938 122.758 153.863 122.645C153.789 122.531 153.469 122.383 153.133 122.289C152.664 122.176 152.512 122.023 152.477 121.633C152.383 120.938 152.738 120.414 153.32 120.336C153.75 120.301 153.883 120.113 154.164 119.344C154.594 118.145 154.93 117.898 156.094 117.977L157.031 118.031L157.125 118.875ZM49.8359 121.051C51.375 122.117 51.6758 122.664 51.8242 124.633C52.0508 127.613 51.5625 128.793 49.7266 129.695C48.7891 130.164 48.4492 130.219 46.8555 130.219C45.1875 130.219 45 130.18 44.1562 129.656C42.7305 128.773 42.2812 127.742 42.2812 125.344C42.2812 123.637 42.3203 123.395 42.8047 122.586C43.7422 120.992 45.4492 120.133 47.4922 120.262C48.6172 120.32 48.918 120.414 49.8359 121.051ZM61.0312 120.824C62.7734 121.687 63.543 123.055 63.5625 125.344C63.5625 127.18 63.3008 127.969 62.3438 128.906C60.1328 131.137 55.7266 130.633 54.3203 127.988C53.7578 126.938 53.7187 123.844 54.2422 122.773C54.582 122.117 56.1563 120.75 57.0391 120.375C57.8242 120.039 59.8867 120.281 61.0312 120.824ZM91.7812 120.449C92.6797 120.824 94.0703 122.176 94.293 122.867C94.3867 123.207 94.5 124.332 94.5547 125.383C94.6484 127.238 94.7266 127.539 95.5508 128.961C95.9063 129.562 95.9063 129.582 95.5508 129.844C94.875 130.352 94.0117 130.387 92.9258 129.938L91.8945 129.508L90.957 129.898C89.3984 130.574 87.1484 130.387 86.3984 129.523C86.1758 129.262 86.0625 128.832 86.0625 128.156C86.0625 126.43 87.2617 125.211 89.1172 125.008C90.2617 124.895 91.5742 124.312 91.7617 123.824C91.9141 123.449 90.75 122.25 90.2422 122.25C90.0547 122.25 89.4375 122.551 88.875 122.926C87.75 123.656 87.0391 123.676 86.3633 123.02C85.7422 122.383 86.4375 121.461 88.2383 120.562C89.1172 120.133 90.8633 120.074 91.7812 120.449ZM131.758 120.676C132.02 121.086 132.094 121.762 132.188 124.012C132.262 126.262 132.355 126.957 132.602 127.352C132.992 127.949 133.836 128.156 134.699 127.875C135.523 127.613 135.676 127.164 135.938 124.312C136.164 121.707 136.273 121.164 136.613 120.602C136.93 120.113 137.738 120.039 138.301 120.449C138.637 120.695 138.656 121.031 138.711 125.418L138.789 130.125H137.906C137.438 130.125 136.801 129.992 136.5 129.844C136.031 129.602 135.863 129.602 134.867 129.957C132.918 130.648 131.082 130.238 130.07 128.887C129.414 128.023 129.187 125.156 129.543 122.102C129.73 120.508 129.938 120.188 130.801 120.188C131.27 120.188 131.512 120.32 131.758 120.676ZM143.457 120.488C143.586 120.637 143.926 120.898 144.207 121.031C144.676 121.273 144.77 121.258 145.574 120.711C146.344 120.207 146.57 120.148 147.469 120.227C148.707 120.336 149.926 121.07 150.281 121.949C150.449 122.344 150.582 123.863 150.676 126.336L150.805 130.125H148.367L148.258 127.352C148.199 125.832 148.051 124.273 147.938 123.898C147.617 122.773 146.68 122.344 145.633 122.832C144.824 123.207 144.523 124.18 144.32 127.125C144.227 128.625 144.133 129.863 144.113 129.883C144.094 129.898 143.512 129.977 142.82 130.051L141.543 130.18L141.602 125.492C141.656 120.414 141.711 120.188 142.688 120.188C142.969 120.188 143.305 120.32 143.457 120.488Z" fill="black"/>
<path d="M91.5938 63.6562C91.1797 63.7891 90 64.1641 88.9688 64.5C86.082 65.418 84.7891 66.1875 82.9492 68.043C80.793 70.2383 80.25 71.0625 80.25 72.1875C80.25 72.7891 80.3633 73.2383 80.6055 73.5195C80.9609 73.9687 81 73.9687 84.6367 73.9492L88.3125 73.9297L90.3555 71.9453C91.4805 70.875 92.9062 69.6172 93.543 69.168C94.1797 68.7187 94.7422 68.1758 94.8008 67.9687C94.9297 67.4258 94.3516 65.082 93.8984 64.3516C93.2812 63.3555 92.8672 63.2266 91.5938 63.6562Z" fill="black"/>
<path d="M109.031 69.4883C107.867 70.0859 106.539 71.1758 106.273 71.7188C106.125 72.0391 106.219 72.543 106.648 73.8945C106.969 74.8672 107.344 76.5391 107.531 77.625C107.699 78.7109 107.926 79.7422 108.055 79.9297C108.187 80.1172 108.844 80.6641 109.539 81.1484C110.23 81.6367 111.523 82.6133 112.406 83.3047L114 84.582L114.938 83.9062C116.398 82.8203 116.719 82.1797 116.68 80.1562C116.645 78.1875 116.25 76.1055 115.707 75.0195C114.918 73.4805 110.793 69 110.195 69C110.063 69 109.555 69.2266 109.031 69.4883Z" fill="black"/>
<path d="M95.1562 69.6367C94.0117 70.1797 91.6133 72.1133 90.1133 73.6875L89.0078 74.832L89.1172 76.0859C89.25 77.457 90.1328 80.5117 90.8828 82.0703C91.2734 82.9297 91.4609 83.1172 92.4922 83.6055C93.1328 83.9258 94.2188 84.3008 94.8945 84.4687C95.5703 84.6172 96.8438 85.0859 97.7266 85.5C98.6055 85.9141 99.4687 86.25 99.6172 86.25C100.367 86.25 105.133 82.2187 106.332 80.5508C106.988 79.668 107.008 79.1992 106.48 77.1953C105.824 74.5859 105.055 72.8437 104.305 72.168C103.219 71.2305 100.445 69.9766 98.457 69.5625C96.2617 69.0937 96.3008 69.0937 95.1562 69.6367Z" fill="black"/>
<path d="M77.8672 73.164C77.1016 73.9687 75.75 76.1055 75.75 76.5C75.75 76.668 75.5234 77.3437 75.2617 78C74.625 79.5547 74.043 82.2734 74.0078 83.8515C73.9687 84.918 74.0234 85.1797 74.3828 85.5195C74.9258 86.082 75.4492 85.914 76.5391 84.8242C77.418 83.9609 77.8125 83.1172 77.8125 82.1055C77.8125 81.375 78.5234 78.7695 79.0508 77.6445C79.5742 76.4609 79.7617 74.9609 79.5547 73.5937C79.4258 72.789 79.3516 72.6562 78.9375 72.6015C78.6016 72.5625 78.3008 72.7305 77.8672 73.164Z" fill="black"/>
<path d="M115.781 84.7695C114.508 85.9297 113.25 88.875 113.25 90.6563C113.25 90.957 112.875 91.9492 112.406 92.8516C111.898 93.8438 111.562 94.7422 111.562 95.1016C111.582 95.9063 112.273 97.293 112.914 97.7422C113.398 98.1172 113.438 98.1172 113.945 97.7813C114.602 97.3516 114.789 97.125 115.594 95.6797C116.344 94.4063 117.43 91.332 117.844 89.3828C117.992 88.668 118.125 87.3945 118.125 86.5117C118.125 85.0703 118.086 84.8828 117.656 84.4688C117.039 83.832 116.758 83.8672 115.781 84.7695Z" fill="black"/>
<path d="M90.2266 84.6563C89.3828 85.0313 84.9922 88.8008 84.6562 89.4375C84.2617 90.1875 84.3008 91.293 84.75 92.1172C84.957 92.4922 85.125 93.0195 85.125 93.2617C85.125 93.957 85.9883 96.5234 86.5859 97.5742C87 98.3437 87.3203 98.625 88.4062 99.207C89.1172 99.6016 90.1328 100.012 90.6562 100.145C91.1641 100.258 91.9297 100.52 92.3633 100.707C93.3359 101.176 94.7422 101.156 95.793 100.668C96.7695 100.238 98.5508 98.832 100.367 97.0859C101.832 95.6641 101.852 95.6055 101.25 92.6992C100.914 91.0117 100.555 89.9063 99.8437 88.1992C99.5234 87.4688 98.043 86.7188 94.7812 85.668C93.543 85.2578 92.3047 84.8047 92.0234 84.6563C91.4258 84.3203 91.0312 84.3203 90.2266 84.6563Z" fill="black"/>
<path d="M76.4453 86.4375C74.9453 87.8047 74.9063 87.957 75.3555 91.1445C75.6953 93.6367 75.7891 93.9766 76.6328 95.625C77.6641 97.668 79.5 99.7109 80.6797 100.125C81.0547 100.273 81.375 100.48 81.375 100.613C81.375 100.895 81.8047 101.062 82.5195 101.062C83.1367 101.062 84.7695 99.6953 85.2383 98.7734C85.4805 98.2891 85.4609 98.1563 85.0508 97.2578C84.7891 96.7109 84.4141 95.4375 84.207 94.4062C83.793 92.2695 83.4375 91.1797 82.7813 90.0742C82.1641 89.0234 78.2266 85.5 77.6641 85.5C77.5508 85.5 77.0078 85.9141 76.4453 86.4375Z" fill="black"/>
<path d="M104.25 96.168L102.844 96.2812L100.594 98.25C96.0391 102.227 95.5313 102.863 96.2813 103.688C96.4492 103.875 96.6563 104.457 96.7305 105C96.957 106.387 97.3867 106.742 98.9453 106.836C100.555 106.93 102.918 106.367 104.719 105.469C107.195 104.23 110.961 100.707 111.355 99.2422C111.543 98.5859 111.355 97.668 110.813 96.5078L110.57 96L108.113 96.0391C106.762 96.0547 105.02 96.1133 104.25 96.168Z" fill="black"/>
</svg>
