<svg width="512" height="512" viewBox="0 0 512 512" fill="none" xmlns="http://www.w3.org/2000/svg">
<path d="M0 256V512H512V0H0V256ZM268.801 167.199C273.898 168.25 283.398 171.551 286 173.25C287.25 174 289.148 175.25 290.25 175.949C292.949 177.699 302.551 187 305.449 190.75C310.301 196.898 313.949 204.301 316 212.051C316.852 215.398 317.148 218.148 317.352 225.5C317.648 236.551 316.852 242.5 314.5 247.199C313.648 248.801 313 250.551 313 251.102C313 254 305.699 265.148 300.148 270.699C293.801 277.148 282.602 283.801 274.5 285.949C264.75 288.602 257.301 289.051 246.75 287.75C238.199 286.648 235.801 285.949 227.898 281.898L220.801 278.352L205.199 262.75L201.602 255.699C196.102 244.801 194.5 237.648 194.5 223.801C194.5 218.75 194.699 216.852 195.699 213.449C197.801 206.199 200.852 199.449 204.301 194.449C208.398 188.352 215.199 180.602 217.5 179.352C218.449 178.852 220.301 177.551 221.602 176.449C222.898 175.352 224.898 174.051 226.102 173.449C227.301 172.898 229.102 172 230.102 171.449C232.699 170.051 243.102 167.051 247.25 166.5C251.898 165.898 264.352 166.301 268.801 167.199ZM283.551 319C283.699 323.551 283.898 330.449 283.949 334.301L284 341.398L285.699 341.699C289.051 342.352 289.852 345.102 287.199 346.801C286.352 347.398 285.199 347.551 283.301 347.398C279.949 347.102 277.301 345.301 276.801 342.949C276.648 342.102 276.5 334.352 276.5 325.801V310.25L279.852 310.5L283.25 310.75L283.551 319ZM205 315.602C205 322.398 206.199 324.801 208.449 322.551C209.949 321.051 211.25 320.5 213.352 320.5C215.898 320.5 220.148 323 221.801 325.449C225.801 331.5 225.199 341.199 220.648 344.949C217.102 347.852 211.148 348.25 207.449 345.75L205.398 344.398L204.199 345.551C203 346.699 200 347.148 199.148 346.301C198.949 346.102 198.699 337.949 198.602 328.199L198.449 310.5H205V315.602ZM267 325.449V340.398L268.551 341C271.949 342.449 273.051 345.301 270.75 346.801C269 347.949 263.949 347.602 262.449 346.199C260 344.051 259.801 342.699 259.602 327.352C259.5 319.449 259.551 312.398 259.699 311.75C260 310.551 260.199 310.5 263.5 310.5H267V325.449ZM336.102 313.5C337.898 314.898 338.199 318.449 337.75 333.852L337.352 346.5H334.199C332.449 346.5 330.949 346.352 330.949 346.102C330.898 345.898 330.75 343.148 330.551 340L330.25 334.25L323.699 334.102C317.898 334 317.102 334.051 316.801 334.801C316.602 335.301 316.25 338.051 315.949 340.949C315.648 343.852 315.352 346.301 315.301 346.352C315.25 346.398 313.75 346.602 311.898 346.801L308.602 347.148L308.25 342.801C307.898 338.5 308.301 318 308.801 315.352C309.051 314.051 309.199 314 312.199 314H315.352L315.699 318.602C315.852 321.102 316 324.148 316 325.352V327.5L322.398 327.199C325.898 327.051 329 326.852 329.301 326.75C329.648 326.648 329.949 324.602 330.148 321.648C330.449 316.449 331 314.25 332.398 313.199C333.602 312.25 334.648 312.352 336.102 313.5ZM111.199 315.148C112 318.301 111.352 318.602 101.898 319.148C96.9492 319.449 93.6016 319.852 93.3984 320.199C93.1992 320.5 93 321.801 93 323.051C93 326.398 93.75 326.852 100 327.449C104.301 327.852 105.398 328.148 106.051 328.949C106.949 330.051 106.801 332.148 105.801 333C105.449 333.25 102.648 333.699 99.5 334C96.3984 334.25 93.75 334.602 93.6016 334.75C93.4492 334.898 93.1992 337.699 93.1016 341L92.8984 347H84.8516L85.1484 331.102C85.3008 322.398 85.6016 314.75 85.8008 314.102L86.1016 313L98.4492 313.102L110.75 313.25L111.199 315.148ZM183.398 315.102C183.648 315.449 184.051 316.449 184.199 317.352C184.648 319.352 185.102 319.699 188.5 320.648C195.5 322.699 195.199 325.602 187.801 326.949C186.148 327.25 184.75 327.602 184.648 327.699C184.102 328.25 183.949 337.352 184.449 338.648C185.051 340.148 187.551 341.5 189.699 341.5C192.25 341.5 193.25 343.949 191.551 346.051C190.852 346.949 190 347.199 187.551 347.398C184.199 347.648 180.398 346.801 179.398 345.602C179 345.148 178.602 341.699 178.25 336.352L177.75 327.801L175.75 326.801C173.949 325.852 173.75 325.551 173.602 323.602C173.449 321.699 173.551 321.449 174.852 321C177.301 320.102 177.75 319.699 178.25 317.551C178.551 316.398 179.102 315.25 179.5 315C180.551 314.301 182.801 314.398 183.398 315.102ZM419 317C419.148 318.25 419.449 319.5 419.648 319.801C419.852 320.148 421.301 320.551 422.852 320.75C426.25 321.148 427 321.648 427 323.5C427 325.398 425.449 326.602 422.551 326.898C419.551 327.148 419.5 327.199 419.5 335.051V340.852L422 341.148C425.199 341.551 426.398 342.199 426.801 343.852C427.051 344.852 426.898 345.398 426 346.102C425.102 346.852 424 347 420 347C412.398 347 411.898 346.301 411.102 334.449C410.852 330.699 410.5 327.352 410.301 327.051C410.102 326.75 409.25 326.352 408.352 326.102C407.102 325.801 406.699 325.398 406.602 324.352C406.352 322.5 407.301 321.102 408.852 320.898C410 320.801 410.352 320.301 411.102 318.25C412.25 315.051 413.148 314.398 416.25 314.602L418.75 314.75L419 317ZM132.898 322.801C137 325.648 137.801 327.102 138.199 332.352C138.801 340.301 137.5 343.449 132.602 345.852C130.102 347.102 129.199 347.25 124.949 347.25C120.5 347.25 120 347.148 117.75 345.75C113.949 343.398 112.75 340.648 112.75 334.25C112.75 329.699 112.852 329.051 114.148 326.898C116.648 322.648 121.199 320.352 126.648 320.699C129.648 320.852 130.449 321.102 132.898 322.801ZM162.75 322.199C167.398 324.5 169.449 328.148 169.5 334.25C169.5 339.148 168.801 341.25 166.25 343.75C160.352 349.699 148.602 348.352 144.852 341.301C143.352 338.5 143.25 330.25 144.648 327.398C145.551 325.648 149.75 322 152.102 321C154.199 320.102 159.699 320.75 162.75 322.199ZM244.75 321.199C247.148 322.199 250.852 325.801 251.449 327.648C251.699 328.551 252 331.551 252.148 334.352C252.398 339.301 252.602 340.102 254.801 343.898C255.75 345.5 255.75 345.551 254.801 346.25C253 347.602 250.699 347.699 247.801 346.5L245.051 345.352L242.551 346.398C238.398 348.199 232.398 347.699 230.398 345.398C229.801 344.699 229.5 343.551 229.5 341.75C229.5 337.148 232.699 333.898 237.648 333.352C240.699 333.051 244.199 331.5 244.699 330.199C245.102 329.199 242 326 240.648 326C240.148 326 238.5 326.801 237 327.801C234 329.75 232.102 329.801 230.301 328.051C228.648 326.352 230.5 323.898 235.301 321.5C237.648 320.352 242.301 320.199 244.75 321.199ZM351.352 321.801C352.051 322.898 352.25 324.699 352.5 330.699C352.699 336.699 352.949 338.551 353.602 339.602C354.648 341.199 356.898 341.75 359.199 341C361.398 340.301 361.801 339.102 362.5 331.5C363.102 324.551 363.398 323.102 364.301 321.602C365.148 320.301 367.301 320.102 368.801 321.199C369.699 321.852 369.75 322.75 369.898 334.449L370.102 347H367.75C366.5 347 364.801 346.648 364 346.25C362.75 345.602 362.301 345.602 359.648 346.551C354.449 348.398 349.551 347.301 346.852 343.699C345.102 341.398 344.5 333.75 345.449 325.602C345.949 321.352 346.5 320.5 348.801 320.5C350.051 320.5 350.699 320.852 351.352 321.801ZM382.551 321.301C382.898 321.699 383.801 322.398 384.551 322.75C385.801 323.398 386.051 323.352 388.199 321.898C390.25 320.551 390.852 320.398 393.25 320.602C396.551 320.898 399.801 322.852 400.75 325.199C401.199 326.25 401.551 330.301 401.801 336.898L402.148 347H395.648L395.352 339.602C395.199 335.551 394.801 331.398 394.5 330.398C393.648 327.398 391.148 326.25 388.352 327.551C386.199 328.551 385.398 331.148 384.852 339C384.602 343 384.352 346.301 384.301 346.352C384.25 346.398 382.699 346.602 380.852 346.801L377.449 347.148L377.602 334.648C377.75 321.102 377.898 320.5 380.5 320.5C381.25 320.5 382.148 320.852 382.551 321.301Z" fill="black"/>
<path d="M244.25 169.75C243.148 170.102 240 171.102 237.25 172C229.551 174.449 226.102 176.5 221.199 181.449C215.449 187.301 214 189.5 214 192.5C214 194.102 214.301 195.301 214.949 196.051C215.898 197.25 216 197.25 225.699 197.199L235.5 197.148L240.949 191.852C243.949 189 247.75 185.648 249.449 184.449C251.148 183.25 252.648 181.801 252.801 181.25C253.148 179.801 251.602 173.551 250.398 171.602C248.75 168.949 247.648 168.602 244.25 169.75Z" fill="black"/>
<path d="M290.75 185.301C287.648 186.898 284.102 189.801 283.398 191.25C283 192.102 283.25 193.449 284.398 197.051C285.25 199.648 286.25 204.102 286.75 207C287.199 209.898 287.801 212.648 288.148 213.148C288.5 213.648 290.25 215.102 292.102 216.398C293.949 217.699 297.398 220.301 299.75 222.148L304 225.551L306.5 223.75C310.398 220.852 311.25 219.148 311.148 213.75C311.051 208.5 310 202.949 308.551 200.051C306.449 195.949 295.449 184 293.852 184C293.5 184 292.148 184.602 290.75 185.301Z" fill="black"/>
<path d="M253.75 185.699C250.699 187.148 244.301 192.301 240.301 196.5L237.352 199.551L237.648 202.898C238 206.551 240.352 214.699 242.352 218.852C243.398 221.148 243.898 221.648 246.648 222.949C248.352 223.801 251.25 224.801 253.051 225.25C254.852 225.648 258.25 226.898 260.602 228C262.949 229.102 265.25 230 265.648 230C267.648 230 280.352 219.25 283.551 214.801C285.301 212.449 285.352 211.199 283.949 205.852C282.199 198.898 280.148 194.25 278.148 192.449C275.25 189.949 267.852 186.602 262.551 185.5C256.699 184.25 256.801 184.25 253.75 185.699Z" fill="black"/>
<path d="M207.648 195.102C205.602 197.25 202 202.949 202 204C202 204.449 201.398 206.25 200.699 208C199 212.148 197.449 219.398 197.352 223.602C197.25 226.449 197.398 227.148 198.352 228.051C199.801 229.551 201.199 229.102 204.102 226.199C206.449 223.898 207.5 221.648 207.5 218.949C207.5 217 209.398 210.051 210.801 207.051C212.199 203.898 212.699 199.898 212.148 196.25C211.801 194.102 211.602 193.75 210.5 193.602C209.602 193.5 208.801 193.949 207.648 195.102Z" fill="black"/>
<path d="M308.75 226.051C305.352 229.148 302 237 302 241.75C302 242.551 301 245.199 299.75 247.602C298.398 250.25 297.5 252.648 297.5 253.602C297.551 255.75 299.398 259.449 301.102 260.648C302.398 261.648 302.5 261.648 303.852 260.75C305.602 259.602 306.102 259 308.25 255.148C310.25 251.75 313.148 243.551 314.25 238.352C314.648 236.449 315 233.051 315 230.699C315 226.852 314.898 226.352 313.75 225.25C312.102 223.551 311.352 223.648 308.75 226.051Z" fill="black"/>
<path d="M240.602 225.75C238.352 226.75 226.648 236.801 225.75 238.5C224.699 240.5 224.801 243.449 226 245.648C226.551 246.648 227 248.051 227 248.699C227 250.551 229.301 257.398 230.898 260.199C232 262.25 232.852 263 235.75 264.551C237.648 265.602 240.352 266.699 241.75 267.051C243.102 267.352 245.148 268.051 246.301 268.551C248.898 269.801 252.648 269.75 255.449 268.449C258.051 267.301 262.801 263.551 267.648 258.898C271.551 255.102 271.602 254.949 270 247.199C269.102 242.699 268.148 239.75 266.25 235.199C265.398 233.25 261.449 231.25 252.75 228.449C249.449 227.352 246.148 226.148 245.398 225.75C243.801 224.852 242.75 224.852 240.602 225.75Z" fill="black"/>
<path d="M203.852 230.5C199.852 234.148 199.75 234.551 200.949 243.051C201.852 249.699 202.102 250.602 204.352 255C207.102 260.449 212 265.898 215.148 267C216.148 267.398 217 267.949 217 268.301C217 269.051 218.148 269.5 220.051 269.5C221.699 269.5 226.051 265.852 227.301 263.398C227.949 262.102 227.898 261.75 226.801 259.352C226.102 257.898 225.102 254.5 224.551 251.75C223.449 246.051 222.5 243.148 220.75 240.199C219.102 237.398 208.602 228 207.102 228C206.801 228 205.352 229.102 203.852 230.5Z" fill="black"/>
<path d="M278 256.449L274.25 256.75L268.25 262C256.102 272.602 254.75 274.301 256.75 276.5C257.199 277 257.75 278.551 257.949 280C258.551 283.699 259.699 284.648 263.852 284.898C268.148 285.148 274.449 283.648 279.25 281.25C285.852 277.949 295.898 268.551 296.949 264.648C297.449 262.898 296.949 260.449 295.5 257.352L294.852 256L288.301 256.102C284.699 256.148 280.051 256.301 278 256.449Z" fill="black"/>
</svg>
